<?xml version="1.0" encoding="utf-8"?>
<!-- Generator: Adobe Illustrator 28.1.0, SVG Export Plug-In . SVG Version: 6.00 Build 0)  -->
<svg version="1.1" id="Layer_1" xmlns="http://www.w3.org/2000/svg" xmlns:xlink="http://www.w3.org/1999/xlink" x="0px" y="0px"
	 viewBox="0 0 468.9 292.8" style="enable-background:new 0 0 468.9 292.8;" xml:space="preserve">
<style type="text/css">
	.st0{fill:#333;}
	.st1{fill:#333;}
</style>
<g>
	<g>
		<g>
			<g>
				<g>
					<rect x="41.9" y="138.5" class="st0" width="19" height="58.7"/>
				</g>
				<g>
					<path class="st0" d="M33.3,0C13.3,0,3.2,10.7,3.2,32.1v165.1h21.3V31.7c0-7.1,2.9-10.6,8.8-10.6c6.3,0,8.6,3.3,8.6,10.6v51.7
						h19V31.7C60.9,10.6,51.7,0,33.3,0z"/>
				</g>
			</g>
			<g>
				<g>
					<polygon class="st0" points="357.7,32.1 387.1,32.1 387.1,11.1 336.9,11.1 336.9,52.9 357.7,52.9 					"/>
				</g>
				<g>
					<polygon class="st0" points="357.7,155 336.9,155 336.9,197.2 388.2,197.2 388.2,176.4 357.7,176.4 					"/>
				</g>
			</g>
			<g>
				<g>
					<path class="st0" d="M129,107.7c3-2.2,5.3-4.9,6.8-8.3c2-4.2,2.9-9.8,2.9-17.1V44.6c0-12.2-2.8-20.8-8.3-25.9
						c-5.5-5.1-13.7-7.6-24.5-7.6H98v21h7.9c5,0,8.1,1.4,9.5,4.1c1.4,2.7,2,6.9,2,12.7v33.7c0,7.8-3.6,11.8-10.9,12h-2.5l2.5,19
						c2.3,14.2,4.2,28.1,5.9,41.8c1.7,13.7,3.3,27.7,5,41.8h22.8L129,107.7L129,107.7z"/>
				</g>
				<g>
					<rect x="77" y="32.1" class="st0" width="21" height="21"/>
				</g>
			</g>
			<g>
				<g>
					<path class="st0" d="M456.3,106.6L456.3,106.6c3-2.2,5.3-4.9,6.8-8.3c2-4.2,2.9-9.8,2.9-17.1V43.5c0-12.2-2.8-20.8-8.3-25.9
						c-5.5-5.1-13.7-7.6-24.5-7.6h-7.9v21h7.9c5,0,8.1,1.4,9.5,4.1c1.4,2.7,2,6.9,2,12.7v33.7c0,7.8-3.6,11.8-10.9,12h-2.5l2.5,19
						c2.3,14.2,4.2,28.1,5.9,41.8c1.7,13.7,3.3,27.7,5,41.8h22.8L456.3,106.6z"/>
				</g>
				<g>
					<rect x="404.3" y="31.1" class="st0" width="21" height="21"/>
				</g>
			</g>
			<g>
				<polygon class="st0" points="178,11.1 195.9,149.3 159,149.3 156.5,168.5 198.4,168.5 202.2,197.2 225.2,197.2 201.1,11.1 				
					"/>
			</g>
			<g>
				<polygon class="st0" points="301.1,32.1 301.1,11.1 241.4,11.1 241.4,32.1 260.8,32.1 260.8,176.4 260.8,183.2 260.8,197.2 
					281.6,197.2 281.6,183.2 281.6,176.4 281.6,32.1 				"/>
			</g>
		</g>
		<g>
			<path class="st1" d="M14.4,271.2c0-1.6-0.2-2.9-0.5-3.8c-0.3-0.9-1-2-2-3.3c-0.6-0.7-1.3-1.6-2.2-2.7c-0.9-1.1-1.8-2.1-2.8-3.3
				c-0.9-1.1-1.8-2.2-2.7-3.3c-0.9-1.1-1.6-2-2.1-2.8c-0.8-1.2-1.4-2.5-1.7-3.8c-0.3-1.3-0.5-3-0.5-5v-10.5
				c0-7.7,3.8-11.6,11.3-11.6c3.9,0,6.6,1,8.2,2.9c1.6,1.9,2.4,4.8,2.4,8.7v12.8h-7.3v-12.7c0-1.1-0.3-2-0.8-2.7
				c-0.5-0.7-1.4-1-2.6-1c-2.2,0-3.3,1.2-3.3,3.7v10.4c0,1,0.1,1.8,0.3,2.6c0.2,0.7,0.5,1.5,1.1,2.2c0.4,0.6,1,1.4,1.9,2.4
				c0.9,1,1.8,2,2.7,3.1c1,1.1,1.9,2.2,2.9,3.4c0.9,1.2,1.7,2.2,2.4,3.2c0.6,0.8,1,1.6,1.4,2.3c0.4,0.8,0.7,1.6,0.9,2.4
				c0.2,0.9,0.4,1.8,0.5,2.8s0.2,2.2,0.2,3.6v10.1c0,3.7-0.9,6.6-2.6,8.6s-4.6,3-8.5,3c-3.9,0-6.8-1-8.5-3c-1.8-2-2.6-4.9-2.6-8.6
				v-14.9h7.6v14.9c0,1.1,0.3,2,0.8,2.7c0.5,0.7,1.4,1,2.6,1c2.3,0,3.4-1.2,3.4-3.7V271.2z"/>
			<path class="st1" d="M64,292c-1.3-6-2.5-11.3-3.5-15.9s-1.9-8.7-2.8-12.4c-0.8-3.7-1.6-7-2.2-10c-0.7-3-1.3-5.9-1.8-8.7
				c0.1,4.8,0.2,9.6,0.2,14.4c0,4.8,0,9.6,0,14.4V292h-6.7v-70.1h9.2c1.1,6.5,2.1,12.1,3,16.9c0.9,4.8,1.7,9,2.3,12.6
				c0.7,3.6,1.3,6.9,1.8,9.8c0.5,2.9,1.1,5.7,1.6,8.4c-0.1-4.1-0.2-8.1-0.2-12s0-7.8,0-11.8v-23.9h6.7V292H64z"/>
			<path class="st1" d="M97,233.1c0-8,3.7-11.9,11.2-11.9c7.5,0,11.2,4,11.2,11.9v47.8c0,8-3.7,11.9-11.2,11.9
				c-7.4,0-11.2-4-11.2-11.9V233.1z M111.6,233.1c0-2.7-1.1-4-3.4-4c-2.2,0-3.3,1.3-3.3,4v47.8c0,2.7,1.1,4.1,3.3,4.1
				c2.3,0,3.4-1.4,3.4-4.1V233.1z"/>
			<path class="st1" d="M167.5,292c-0.6-5.8-1.1-11.5-1.7-17c-0.5-5.5-1-10.4-1.4-14.8c-0.4-4.4-0.7-8.1-0.9-11
				c-0.2-3-0.3-4.9-0.3-5.8c-0.1,0.9-0.2,2.8-0.6,5.8c-0.3,3-0.7,6.7-1.1,11.1c-0.4,4.4-0.9,9.3-1.5,14.8c-0.6,5.5-1.1,11.1-1.7,17
				h-9.4l-7.2-70.1h8.2c0.5,6.1,0.9,12.1,1.4,17.9c0.5,5.8,0.9,11.1,1.4,15.8s0.8,8.6,1.1,11.9s0.5,5.4,0.5,6.4
				c0.1-1,0.3-3.2,0.6-6.4s0.8-7.2,1.3-11.9c0.5-4.7,1.1-9.9,1.7-15.8c0.6-5.8,1.3-11.8,2-17.9h7.3c0.6,6.1,1.1,12.1,1.7,17.9
				c0.5,5.8,1,11.1,1.5,15.8c0.5,4.7,0.8,8.6,1.1,11.9c0.3,3.2,0.5,5.4,0.5,6.4c0.1-1,0.2-3.2,0.6-6.4c0.3-3.2,0.7-7.2,1.2-11.9
				c0.5-4.7,1-9.9,1.6-15.8c0.6-5.8,1.1-11.8,1.7-17.9h8.3l-8.4,70.1H167.5z"/>
			<path class="st1" d="M209,292v-70.1h11.3c3.8,0,6.5,1,8.1,2.9c1.6,1.9,2.4,5,2.4,9.3v14.2c0,4-1.2,6.4-3.7,7.4
				c1.2,0.3,2.3,1,3.2,2.2c0.9,1.2,1.4,2.9,1.4,5.1v17.1c0,4.1-1,7.2-2.9,9c-1.9,1.9-4.8,2.8-8.6,2.8H209z M223.6,233.8
				c0-1.5-0.3-2.5-0.8-3.1c-0.5-0.6-1.3-0.9-2.5-0.9h-3.5v22.9h3.6c2.1,0,3.2-1.2,3.2-3.7V233.8z M223.7,263.7
				c0-1.5-0.2-2.5-0.7-3.2c-0.5-0.6-1.3-0.9-2.6-0.9h-3.6v24.5h3.5c2.3,0,3.4-1.4,3.4-4.1V263.7z"/>
			<path class="st1" d="M256.2,233.1c0-8,3.7-11.9,11.2-11.9c7.5,0,11.2,4,11.2,11.9v47.8c0,8-3.7,11.9-11.2,11.9
				c-7.4,0-11.2-4-11.2-11.9V233.1z M270.8,233.1c0-2.7-1.1-4-3.4-4c-2.2,0-3.3,1.3-3.3,4v47.8c0,2.7,1.1,4.1,3.3,4.1
				c2.3,0,3.4-1.4,3.4-4.1V233.1z"/>
			<path class="st1" d="M319.7,292l-1.3-10.8h-8.6c-0.3,1.8-0.5,3.6-0.7,5.4c-0.2,1.8-0.4,3.6-0.6,5.4h-7.7l9.1-70.1h9.1l8.6,70.1
				H319.7z M317.5,273.9c-0.6-5.3-1.2-10.6-1.8-15.8c-0.6-5.2-1.1-10.5-1.6-16.1c-1,11-2.2,21.6-3.6,31.9H317.5z"/>
			<path class="st1" d="M366.8,292c-0.6-5.3-1.2-10.6-1.9-15.8c-0.6-5.2-1.4-10.4-2.2-15.8h-3.2V292h-7.9v-70.1h10.9
				c4.1,0,7.2,1,9.2,2.9c2.1,1.9,3.1,5.2,3.1,9.8v14.2c0,2.7-0.4,4.9-1.1,6.4c-0.7,1.6-1.9,2.8-3.5,3.7c1,5.7,1.9,11.2,2.8,16.7
				c0.8,5.5,1.6,10.9,2.4,16.4H366.8z M366.8,236.1c0-2.2-0.3-3.7-0.8-4.8c-0.5-1-1.7-1.5-3.6-1.5h-3v23.5h3.1
				c2.8,0,4.3-1.5,4.3-4.5V236.1z"/>
			<path class="st1" d="M399.8,292v-70.1h11.1c3.7,0,6.6,1.1,8.4,3.2c1.9,2.1,2.8,5.1,2.8,8.8v46.2c0,8-3.7,11.9-11.2,11.9H399.8z
				 M414.3,233.9c0-2.7-1.1-4.1-3.4-4.1h-3.2v54.4h3.2c2.3,0,3.4-1.4,3.4-4.1V233.9z"/>
			<path class="st1" d="M461.1,271.2c0-1.6-0.2-2.9-0.5-3.8c-0.3-0.9-1-2-2-3.3c-0.6-0.7-1.3-1.6-2.2-2.7c-0.9-1.1-1.8-2.1-2.8-3.3
				c-0.9-1.1-1.8-2.2-2.7-3.3c-0.9-1.1-1.6-2-2.1-2.8c-0.8-1.2-1.3-2.5-1.7-3.8c-0.3-1.3-0.5-3-0.5-5v-10.5
				c0-7.7,3.8-11.6,11.3-11.6c3.9,0,6.6,1,8.2,2.9c1.6,1.9,2.4,4.8,2.4,8.7v12.8h-7.3v-12.7c0-1.1-0.3-2-0.8-2.7
				c-0.5-0.7-1.4-1-2.6-1c-2.2,0-3.3,1.2-3.3,3.7v10.4c0,1,0.1,1.8,0.3,2.6c0.2,0.7,0.5,1.5,1.1,2.2c0.4,0.6,1,1.4,1.9,2.4
				c0.9,1,1.8,2,2.7,3.1c1,1.1,1.9,2.2,2.9,3.4c0.9,1.2,1.7,2.2,2.4,3.2c0.6,0.8,1,1.6,1.4,2.3c0.4,0.8,0.7,1.6,0.9,2.4
				c0.2,0.9,0.4,1.8,0.5,2.8c0.1,1,0.2,2.2,0.2,3.6v10.1c0,3.7-0.9,6.6-2.6,8.6c-1.7,2-4.6,3-8.5,3c-3.9,0-6.8-1-8.5-3
				c-1.8-2-2.6-4.9-2.6-8.6v-14.9h7.6v14.9c0,1.1,0.3,2,0.8,2.7c0.5,0.7,1.4,1,2.6,1c2.3,0,3.4-1.2,3.4-3.7V271.2z"/>
		</g>
	</g>
	<polygon class="st0" points="378.6,91.8 358.4,91.8 358.4,71.6 337.4,71.6 337.4,91.8 317.2,91.8 317.2,112.8 337.4,112.8 
		337.4,133 358.4,133 358.4,112.8 378.6,112.8 	"/>
</g>
</svg>
