<?xml version="1.0" encoding="utf-8"?>
<!-- Generator: Adobe Illustrator 28.1.0, SVG Export Plug-In . SVG Version: 6.00 Build 0)  -->
<svg version="1.1" id="Layer_1" xmlns="http://www.w3.org/2000/svg" xmlns:xlink="http://www.w3.org/1999/xlink" x="0px" y="0px"
	 viewBox="0 0 1728 500" style="enable-background:new 0 0 1728 500;" xml:space="preserve">
<style type="text/css">
	.st0{fill:#BCBCBC;}
</style>
<rect class="st0" width="1728" height="500"/>
<g>
	<path d="M665.2,206.4c0-2.2-0.2-4.4-0.5-6.6c-1.5-8.6-6.7-14-15.3-15.5c-2.3-0.4-4.6-0.5-7-0.6c-7.5-0.1-15,0-22.5,0h-2.2
		c-0.1-0.7-0.2-1.2-0.3-1.7h-15.5c0,0.5,0.1,0.9,0.1,1.3c0,5.4,0,10.8,0,16.3c0,0.5-0.1,1-0.1,1.6h-28.6v-16.6
		c-1.5-0.5-13.3-0.6-15.5-0.1v16.5c-1.6,0.4-23.9,0.5-26,0.1c0-6.3-0.1-12.7-0.1-19.1h-15.5c0,0.7,0.1,1.4,0.1,2.1v33.9H609
		c0.7,0,1.4,0.1,2,0.1v8.5h-87.4c-2.4,0-4.9,0-7.2,0c-0.3,3.2-0.2,15.1,0.2,16.6h24.6c2.8,0,5.6,0,8.3,0c2.7,0,5.4,0,8.1,0v12.4
		h-41.1c-0.4,2.5-0.3,15.2,0.1,16.7h94.3c0.4,2.8,0.3,14.8-0.1,16.1c-3.5,0.4-77.4,0.2-79.1-0.2c0-1.9,0-3.9,0-5.9
		c0-2,0.1-4.1,0-6.1c-3.9-0.3-13.9-0.2-15.3,0.2c-0.4,3.6-0.2,39.8,0.2,41.1c3.2,0.4,13.7,0.2,15.2-0.3v-12h79.4v11.7H629v-36.3
		c0-2,0-4,0-6c0-2-0.1-4,0.1-6.1h2.2c3.8,0,7.6,0.1,11.4,0c2.5-0.1,5.1-0.2,7.5-0.7c7.1-1.4,11.8-5.5,13.8-12.6c0.9-2.9,1.2-6,1.2-9
		C665.2,233.2,665.2,219.8,665.2,206.4z M613.8,301.7c-4.1,0.1-8.2,0-12.2,0h-73.3c-0.2,2.1-0.1,4.2-0.1,6.2c0,2,0,4,0,6.1h-8.1
		v-34.1h8c0.2,4.1,0,8.1,0.2,12.4h2.6c26.8,0,53.7,0,80.5,0c0.8,0,1.6,0.1,2.5,0.1V301.7z M613.7,268.4c-1.4,0.3-90.9,0.5-93.4,0.1
		c-0.4-1.3-0.5-6.8-0.1-9.2c4.5,0,9.1,0,13.7,0h27.5v-19.5c-4.6-0.2-9.2-0.1-13.7-0.1c-4.5,0-9.1,0-13.6,0h-13.7
		c-0.4-1.6-0.5-6.7-0.2-9.2c1.5-0.4,91.7-0.4,93.7,0v9.2h-44.1v19.6c2,0.1,4.1,0,6.1,0c2.1,0,4.3,0,6.4,0h31.3
		C614,260.9,614,266.6,613.7,268.4z M611.1,243.6v11.8c-1.4,0.4-34.7,0.5-37.5,0.2c-0.4-1.3-0.5-8.4-0.2-11.9c0,0,0.1-0.1,0.1-0.1
		c0,0,0.1-0.1,0.1-0.1c0.3,0,0.6-0.1,1-0.1c11.9,0,23.9,0,35.8,0C610.6,243.4,610.7,243.5,611.1,243.6z M613.7,214.1
		c-1.4,0.4-89.7,0.6-93.4,0.2c-0.5-1.3-0.6-24.3-0.2-28.2c1.3-0.5,5.5-0.5,8-0.1v18.9h33.2c0.2-1.8,0.1-3.7,0.1-5.5
		c0-1.9,0-3.8,0-5.6v-5.7h8.1c0.2,1.8,0.1,3.7,0.1,5.5c0,1.9,0,3.8,0,5.6v5.7h36.1v-19h7.8C614,187.3,614.1,211.8,613.7,214.1z
		 M647.3,243.8c0,1.4-0.1,2.9-0.4,4.2c-0.5,2.3-2.1,3.8-4.4,4.3c-0.4,0.1-0.8,0.2-1.1,0.2c-4,0-8,0-11.9,0c-0.1-0.1-0.2-0.2-0.2-0.2
		c0,0-0.1-0.1-0.1-0.1c0-0.3-0.1-0.5-0.1-0.8c0-16.9,0-33.8,0-50.7c0-0.2,0.1-0.4,0.2-0.7c4,0,7.8-0.2,11.7,0.1
		c3.9,0.3,6.1,2.9,6.4,6.8c0,0.6,0,1.3,0,1.9C647.3,220.5,647.4,232.1,647.3,243.8z"/>
	<path d="M1211.9,249.9c-0.1,0.4-0.3,0.8-0.3,1.3c-0.2,2.5-0.9,5-1.9,7.3c-2.5,5.4-6.9,8.5-12.6,9.6c-2.5,0.5-5.1,0.6-7.7,0.7
		c-3.8,0.1-7.6,0-11.4,0c-0.6,0-1.3,0-2.1,0c-0.1,2.4,0,4.6-0.1,6.9c0,2.3,0,4.7,0,7c0,2.3,0,4.5,0,6.8c0,2.3,0,4.7,0,7
		c0,2.3,0,4.5,0,6.8c0,2.3,0,4.7,0,7c0,2.3,0,4.5,0,6.7c-1.4,0.5-15.5,0.6-17.7,0.1c0-44.3,0-88.7,0-133.3c0.7,0,1.3,0,2,0
		c9.8,0,19.7-0.1,29.5,0c2.6,0,5.3,0.2,7.9,0.8c7.7,1.7,12.1,6.7,13.8,14.3c0.3,1.4,0.5,2.8,0.8,4.1
		C1211.9,218.7,1211.9,234.3,1211.9,249.9z M1175.9,200c-0.1,0.4-0.2,0.6-0.2,0.7c0,16.9,0,33.8,0,50.7c0,0.3,0.1,0.5,0.1,0.8
		c0,0.1,0.1,0.1,0.1,0.2c0,0,0.1,0.1,0.2,0.2c3.9,0,7.9,0.1,11.9,0c3.2-0.2,5.1-1.9,5.7-5.1c0.2-1.2,0.3-2.4,0.3-3.7
		c0-11.7,0-23.4,0-35.1c0-0.6,0-1.3,0-1.9c-0.2-3.9-2.5-6.5-6.4-6.8C1183.8,199.8,1179.9,200,1175.9,200z"/>
	<path d="M838.9,317.2c-5.8,0-11.6,0-17.6,0c0-0.7-0.1-1.4-0.1-2c0-7.6,0-15.1,0-22.7c0-1.3-0.2-2.6-0.6-3.8
		c-5.8-18.7-11.6-37.4-17.5-56c-0.2-0.7-0.5-1.4-1.1-2c0,28.8,0,57.6,0,86.5c-5.9,0-11.7,0-17.5,0c-0.4-1.4-0.6-129.5-0.2-133
		c1.3-0.4,14.3-0.5,17.8-0.2c6.2,21,12.4,42,18.5,63.1c0.1,0,0.3,0,0.4-0.1c0-21,0-41.9,0-62.8c1.6-0.4,15.2-0.5,17.5-0.2
		c0,0,0.1,0.1,0.1,0.1c0,0,0.1,0.1,0.1,0.2c0,0.2,0.1,0.4,0.1,0.6c0,43.9,0,87.7,0,131.6C839.1,316.6,839,316.8,838.9,317.2z"/>
	<path d="M1142,250.5c0,14.3,0,28.7,0,43c0,3.4-0.2,6.8-1.2,10.2c-2.1,7.1-6.8,11.4-14.1,12.9c-1.8,0.4-3.7,0.6-5.6,0.6
		c-7.1,0-14.2-0.1-21.3-0.2c-2.8-0.1-5.5-1-8-2.2c-4.6-2.3-7.4-6.2-8.7-11.1c-0.7-2.5-0.8-5.2-1.2-7.8c-0.1-0.9-0.1-1.8-0.1-2.7
		c0-28.4,0-56.8,0-85.3c0-3,0.2-6,0.8-8.9c1.6-8.6,7.5-14,16.2-14.9c1.3-0.1,2.7-0.3,4.1-0.3c6.6,0,13.2,0,19.8,0.1
		c1.7,0,3.5,0.3,5.2,0.7c6.6,1.7,10.9,5.9,12.8,12.5c0.7,2.3,0.9,4.8,1.2,7.2c0.2,1.3,0.1,2.7,0.1,4.1
		C1142,222.5,1142,236.5,1142,250.5z M1124.2,250.7c0-13.8,0-27.6,0-41.5c0-0.9,0-1.8-0.1-2.7c-0.4-3.9-2.8-6.4-6.6-6.6
		c-3.7-0.2-7.5-0.2-11.2,0c-3.6,0.2-5.8,2.4-6.2,6c-0.1,1-0.2,2.1-0.2,3.1c0,27.6,0,55.2,0,82.8c0,0.8,0,1.7,0.1,2.5
		c0.5,4.3,2.5,6.4,6.9,6.7c3.7,0.2,7.5,0.2,11.2,0c3.4-0.1,5.3-2,5.9-5.4c0.2-1.2,0.2-2.4,0.2-3.7
		C1124.2,278.3,1124.2,264.5,1124.2,250.7z"/>
	<path d="M697.3,317.2c-6,0-11.8,0-17.7,0c0-44.4,0-88.8,0-133.3c0.6,0,1.1-0.1,1.7-0.1c10.7,0,21.5,0,32.2,0c2.1,0,4.3,0.2,6.4,0.6
		c7.2,1.3,11.7,5.7,13.5,12.7c0.7,2.6,1.1,5.3,1.1,8c0.1,11.7,0.1,23.4,0,35.1c0,2.7-0.3,5.4-0.8,8.1c-1.1,5.9-3.9,10.6-9.7,13.5
		c4.2,18.4,8.4,36.8,12.6,55.4c-5.7,0-11.1,0-16.7,0c-1.4-5.8-2.6-11.8-4-17.8c-1.3-5.9-2.7-11.8-4-17.8c-1.3-6-2.7-12-4-18
		c-3.5,0-6.9,0-10.5,0c-0.2,5.9,0,11.8-0.1,17.7c0,5.9,0,11.9,0,17.8C697.3,305.1,697.3,311.1,697.3,317.2z M697.4,247.9
		c4.5,0,8.9,0.2,13.2-0.1c2.7-0.1,4.8-1.8,5.5-4.5c0.5-1.8,0.8-3.7,0.8-5.5c0.1-9.2,0.1-18.3,0-27.5c0-1.4-0.1-2.8-0.4-4.2
		c-0.6-3.5-2.7-5.6-5.9-6.1c-0.8-0.1-1.7-0.1-2.5-0.1c-3.1,0-6.2,0-9.3,0c-0.5,0-1,0.1-1.6,0.1C697.4,216.1,697.4,232,697.4,247.9z"
		/>
	<path d="M1008.7,183.8c5.9,0,11.7,0,17.7,0c0,19,0,37.8,0,56.5c1.5,0.5,18.4,0.6,21.8,0.2c0-0.8,0.1-1.6,0.1-2.4
		c0-17.3,0-34.5,0-51.8c0-0.8,0-1.5,0-2.2c1.5-0.5,15.7-0.5,17.8-0.1c0,44.3,0,88.6,0,132.9c-1.3,0.4-14.9,0.6-17.7,0.1
		c0-5,0-10,0-15c0-5,0-9.9,0-14.9c0-5,0-10.1,0-15.1c0-5,0-9.9,0-14.8c-1.6-0.4-18.5-0.5-21.9-0.2c0,0.7-0.1,1.4-0.1,2.2
		c0,18.5,0,37.1,0,55.6c0,0.8,0,1.5,0,2.4c-6,0-11.8,0-17.7,0C1008.7,272.8,1008.7,228.4,1008.7,183.8z"/>
	<path d="M993.3,219.5c-5.8,0-11.5,0-17.5,0c-0.1-0.5-0.1-1.1-0.2-1.6c0-2.9,0-5.8,0-8.7c0-1,0-1.9-0.1-2.9
		c-0.4-3.6-2.6-5.9-6.2-6.2c-1.8-0.2-3.6-0.1-5.4,0c-3.5,0.3-5.7,2.4-6.3,5.8c-0.2,1-0.3,2.1-0.3,3.1c0,6.8,0,13.6,0,20.3
		c0,0.4,0,0.8,0,1.2c0,2.6,1.1,4.6,3.2,6.1c1.5,1,3,2,4.6,2.9c6.5,3.6,13.1,7.1,19.6,10.7c1.4,0.8,2.7,1.8,4,2.7
		c3,2.1,4.3,5.2,4.6,8.8c0.1,0.6,0.1,1.3,0.1,1.9c0,11.2,0.1,22.3,0,33.5c0,2.4-0.5,4.8-1.1,7.1c-1.9,7-6.6,11.1-13.6,12.5
		c-1.9,0.4-3.8,0.6-5.8,0.7c-5.1,0-10.2,0.1-15.3-0.2c-8.6-0.5-14.5-5.5-16.6-13.9c-0.7-2.6-1-5.3-1.2-8c-0.2-2.9,0-5.9,0-9
		c5.8,0,11.5,0,17.3,0c0.1,0.5,0.1,1,0.2,1.5c0,1.7,0,3.4,0,5c0,1,0.1,2.1,0.3,3.1c0.5,2.7,2.1,4.4,4.8,5c2.6,0.6,5.3,0.6,7.9,0.2
		c3.1-0.5,4.8-2.4,5.2-5.6c0.1-1.1,0.1-2.2,0.1-3.3c0-6.7,0-13.4,0-20.2c0-5.4,0.3-5.7-5.2-9.1c-4.1-2.5-8.3-4.7-12.5-7.1
		c-2.7-1.5-5.5-2.9-8.2-4.5c-1.6-0.9-3.1-1.9-4.6-2.9c-2.8-1.9-4.3-4.6-4.9-7.9c-0.3-1.5-0.5-3.1-0.5-4.6c0-10.3-0.1-20.7,0-31
		c0-2.4,0.4-4.9,1-7.3c2-7.9,7.5-12.6,15.6-13.4c6.6-0.6,13.3-0.7,19.9,0c7,0.7,12.4,4,15,10.8c0.9,2.3,1.6,4.8,1.7,7.3
		c0.3,5.5,0.2,11.1,0.2,16.7C993.5,219.1,993.4,219.2,993.3,219.5z"/>
	<path d="M884.2,317.2c-5.9,0-11.6,0-17.7,0c0-19.6,0-39,0-58.5c0-19.5,0-39,0-58.7c-5.7,0-11.3,0-16.8,0c-0.5-1.6-0.5-14-0.1-16.1
		c17.1,0,34.3,0,51.4,0c0.4,1.5,0.5,12.7,0.2,15.9c-1.8,0.2-3.6,0.1-5.5,0.1c-1.8,0-3.6,0-5.4,0c-1.9,0-3.7,0-5.4,0
		c-0.2,0.2-0.2,0.3-0.3,0.3c0,0.1-0.1,0.1-0.1,0.2c0,0.1,0,0.3-0.1,0.4c0,0.1,0,0.1,0,0.2c0,0.1,0,0.1,0,0.2c0,0.2,0,0.4,0,0.6
		c0,38.2,0,76.3,0,114.5c0,0.1,0,0.1,0,0.2c0,0.1,0,0.1,0,0.2c0,0.1,0,0.1,0,0.2C884.3,316.9,884.3,316.9,884.2,317.2z"/>
	<path d="M749.9,317.1c0-44.3,0-88.7,0-133.2c5.8,0,11.6,0,17.4,0c0.4,1.4,0.6,129.2,0.2,133.1C766.1,317.4,752.3,317.5,749.9,317.1
		z"/>
</g>
</svg>
