<?xml version="1.0" encoding="UTF-8"?>
<svg id="Layer_2" data-name="Layer 2" xmlns="http://www.w3.org/2000/svg" viewBox="0 0 78.45 120.71">
  <defs>
    <style>
      .cls-1 {
        fill: #00b7ff;
        stroke-width: 0px;
      }
    </style>
  </defs>
  <g id="Layer_1-2" data-name="Layer 1">
    <g>
      <path class="cls-1" d="M38.3,106.23h-22.11V17.27h41.81c1.78,0,3.01.34,3.69,1.02.68.68,1.02,1.91,1.02,3.69v35.84c0,1.78-.32,3.01-.95,3.69-.63.68-1.76,1.02-3.37,1.02h-.89v1.78h.89c1.61,0,2.73.34,3.37,1.02.64.68.95,1.91.95,3.69v37.24h-22.24v-33.55h-2.16v33.55ZM38.3,36.46v17.03h2.16v-17.03h-2.16Z"/>
      <path class="cls-1" d="M78.45,120.71H0V0h67c6.32,0,11.46,5.14,11.46,11.46v109.25ZM3.44,117.27h71.57V11.46c0-4.42-3.6-8.02-8.02-8.02H3.44v113.83Z"/>
    </g>
  </g>
</svg>