<?xml version="1.0" encoding="UTF-8"?>
<svg id="Layer_2" data-name="Layer 2" xmlns="http://www.w3.org/2000/svg" viewBox="0 0 47.37 47.37">
  <defs>
    <style>
      .cls-1 {
        fill: #ffffe1;
        stroke-width: 0px;
      }
    </style>
  </defs>
  <g id="Layer_1-2" data-name="Layer 1">
    <g>
      <path class="cls-1" d="M0,23.68C0,10.62,10.63,0,23.68,0c13.06,0,23.68,10.62,23.68,23.68s-10.63,23.68-23.68,23.68C10.62,47.37,0,36.74,0,23.68ZM2.8,23.68c0,11.51,9.37,20.88,20.88,20.88,11.51,0,20.88-9.37,20.88-20.88S35.2,2.8,23.68,2.8c-11.51,0-20.88,9.37-20.88,20.88Z"/>
      <path class="cls-1" d="M20.58,33.57l9.09-9.09c.44-.44.44-1.15,0-1.58l-9.09-9.09c-.44-.44-1.15-.44-1.58,0l3.05,9.09c-.44.44-.44,1.15,0,1.58l-3.05,9.09c.44.44,1.15.44,1.58,0Z"/>
    </g>
  </g>
</svg>