<?xml version="1.0" encoding="UTF-8"?>
<svg id="Layer_2" data-name="Layer 2" xmlns="http://www.w3.org/2000/svg" viewBox="0 0 459.61 62.58">
  <defs>
    <style>
      .cls-1 {
        fill: #ffffe1;
        stroke-width: 0px;
      }
    </style>
  </defs>
  <g id="Layer_1-2" data-name="Layer 1">
    <g>
      <path class="cls-1" d="M14.48,58.25H0V0h27.38c1.17,0,1.97.22,2.41.67.44.44.67,1.25.67,2.41v23.47c0,1.16-.21,1.97-.62,2.41-.42.44-1.15.67-2.21.67h-.58v1.16h.58c1.05,0,1.79.22,2.21.67.42.44.62,1.25.62,2.41v24.38h-14.56v-21.97h-1.42v21.97ZM14.48,12.57v11.15h1.42v-11.15h-1.42Z"/>
      <path class="cls-1" d="M59.25,58.25h-24.72c-1.11,0-1.86-.19-2.25-.58-.39-.39-.58-1.16-.58-2.33v-26.96c0-1.11.19-1.87.58-2.29.39-.42,1.14-.62,2.25-.62h11.4v-9.49h-1.25v8.24h-12.98V7.24c0-1.16.19-1.94.58-2.33.39-.39,1.14-.58,2.25-.58h21.8c1.17,0,1.94.19,2.33.58.39.39.58,1.17.58,2.33v51.01ZM45.94,46.6v-9.49h-1.25v9.49h1.25Z"/>
      <path class="cls-1" d="M88.54,0v58.25h-25.13c-1.11,0-1.86-.19-2.25-.58-.39-.39-.58-1.16-.58-2.33V7.24c0-1.16.19-1.94.58-2.33.39-.39,1.14-.58,2.25-.58h11.73V0h13.4ZM75.15,15.98h-1.25v30.63h1.25V15.98Z"/>
      <path class="cls-1" d="M117.75,7.24v48.1c0,1.16-.21,1.94-.62,2.33-.42.39-1.18.58-2.29.58h-22.22c-1.11,0-1.86-.19-2.25-.58-.39-.39-.58-1.16-.58-2.33V7.24c0-1.16.19-1.94.58-2.33.39-.39,1.14-.58,2.25-.58h22.22c1.11,0,1.87.19,2.29.58.42.39.62,1.17.62,2.33ZM103.11,15.98v30.63h1.25V15.98h-1.25Z"/>
      <path class="cls-1" d="M157.95,4.33v49.6c0,1.66-.31,2.8-.91,3.41-.61.61-1.75.92-3.41.92h-26.13V0h26.13c1.66,0,2.8.31,3.41.92.61.61.91,1.75.91,3.41ZM141.97,12.57v33.12h1.42V12.57h-1.42Z"/>
      <path class="cls-1" d="M186.83,7.24v29.88h-14.23v9.49h1.25v-8.24h12.98v16.98c0,1.16-.19,1.94-.58,2.33-.39.39-1.16.58-2.33.58h-21.8c-1.11,0-1.86-.19-2.25-.58-.39-.39-.58-1.16-.58-2.33V7.24c0-1.16.19-1.94.58-2.33.39-.39,1.14-.58,2.25-.58h21.8c1.17,0,1.94.19,2.33.58.39.39.58,1.17.58,2.33ZM172.59,15.98v9.49h1.25v-9.49h-1.25Z"/>
      <path class="cls-1" d="M202.3,37.12h-11.4c-1.11,0-1.86-.21-2.25-.62-.39-.42-.58-1.18-.58-2.29V7.24c0-1.16.19-1.94.58-2.33.39-.39,1.14-.58,2.25-.58h21.8c1.17,0,1.94.19,2.33.58.39.39.58,1.17.58,2.33v16.98h-12.98v-8.24h-1.25v9.49h11.32c1.17,0,1.94.21,2.33.62.39.42.58,1.18.58,2.29v26.96c0,1.16-.19,1.94-.58,2.33-.39.39-1.16.58-2.33.58h-21.8c-1.11,0-1.86-.19-2.25-.58-.39-.39-.58-1.16-.58-2.33v-16.98h12.98v8.24h1.25v-9.49Z"/>
      <path class="cls-1" d="M216.86,3.25V0h13.32v3.25h-13.32ZM216.86,58.25V4.33h13.32v53.93h-13.32Z"/>
      <path class="cls-1" d="M240.91,62.58v-3.16h5.91v-1.16h-12.48c-1.11,0-1.86-.19-2.25-.58-.39-.39-.58-1.16-.58-2.33V7.24c0-1.16.19-1.94.58-2.33.39-.39,1.14-.58,2.25-.58h22.22c1.11,0,1.87.19,2.29.58.42.39.62,1.17.62,2.33v51.51c0,2.55-1.25,3.83-3.75,3.83h-14.81ZM244.83,46.6h1.25V15.98h-1.25v30.63Z"/>
      <path class="cls-1" d="M260.72,4.33h25.05c1.11,0,1.87.19,2.29.58.42.39.62,1.17.62,2.33v51.01h-13.4V15.98h-1.25v42.28h-13.31V4.33Z"/>
      <path class="cls-1" d="M312.9,22.05h12.4c1.17,0,1.97.22,2.41.67.44.45.67,1.25.67,2.41v30.04c0,1.17-.22,1.97-.67,2.41-.44.45-1.25.67-2.41.67h-23.88c-1.17,0-1.96-.22-2.37-.67-.42-.44-.63-1.25-.63-2.41v-19.14h14.06v9.65h1.42v-11.07h-12.48c-1.17,0-1.96-.21-2.37-.62-.42-.42-.63-1.21-.63-2.37V3.08c0-1.16.21-1.97.63-2.41.42-.44,1.21-.67,2.37-.67h23.88c1.17,0,1.97.22,2.41.67.44.44.67,1.25.67,2.41v17.56h-14.06v-8.07h-1.42v9.49Z"/>
      <path class="cls-1" d="M329.71,0h13.32v4.33h14.23v11.65h-14.23v30.63h1.25v-29.38h12.98v38.11c0,1.16-.2,1.94-.58,2.33-.39.39-1.17.58-2.33.58h-21.8c-1.11,0-1.86-.19-2.25-.58-.39-.39-.58-1.16-.58-2.33V0Z"/>
      <path class="cls-1" d="M386.55,58.25h-25.13c-1.11,0-1.86-.19-2.25-.58-.39-.39-.58-1.16-.58-2.33V4.33h13.31v42.28h1.25V4.33h13.4v53.93Z"/>
      <path class="cls-1" d="M415.76,0v58.25h-25.13c-1.11,0-1.86-.19-2.25-.58-.39-.39-.58-1.16-.58-2.33V7.24c0-1.16.19-1.94.58-2.33.39-.39,1.14-.58,2.25-.58h11.73V0h13.4ZM402.36,15.98h-1.25v30.63h1.25V15.98Z"/>
      <path class="cls-1" d="M417,3.25V0h13.32v3.25h-13.32ZM417,58.25V4.33h13.32v53.93h-13.32Z"/>
      <path class="cls-1" d="M459.61,7.24v48.1c0,1.16-.21,1.94-.62,2.33-.42.39-1.18.58-2.29.58h-22.22c-1.11,0-1.86-.19-2.25-.58-.39-.39-.58-1.16-.58-2.33V7.24c0-1.16.19-1.94.58-2.33.39-.39,1.14-.58,2.25-.58h22.22c1.11,0,1.87.19,2.29.58.42.39.62,1.17.62,2.33ZM444.97,15.98v30.63h1.25V15.98h-1.25Z"/>
    </g>
  </g>
</svg>