<?xml version="1.0" encoding="UTF-8"?>
<svg id="Layer_2" data-name="Layer 2" xmlns="http://www.w3.org/2000/svg" viewBox="0 0 47.37 47.37">
  <defs>
    <style>
      .cls-1 {
        fill: #ffffe1;
        stroke-width: 0px;
      }
    </style>
  </defs>
  <g id="Layer_1-2" data-name="Layer 1">
    <g>
      <path class="cls-1" d="M23.68,47.37C10.62,47.37,0,36.74,0,23.68S10.62,0,23.68,0s23.68,10.62,23.68,23.68-10.62,23.68-23.68,23.68ZM23.68,2.8C12.17,2.8,2.8,12.17,2.8,23.68s9.37,20.88,20.88,20.88,20.88-9.37,20.88-20.88S35.2,2.8,23.68,2.8Z"/>
      <path class="cls-1" d="M26.79,33.57l-9.09-9.09c-.44-.44-.44-1.15,0-1.58l9.09-9.09c.44-.44,1.15-.44,1.58,0l-3.05,9.09c.44.44.44,1.15,0,1.58l3.05,9.09c-.44.44-1.15.44-1.58,0Z"/>
    </g>
  </g>
</svg>